<?xml version="1.0" encoding="UTF-8" standalone="no"?>
<!-- Generator: Gravit.io -->
<svg xmlns="http://www.w3.org/2000/svg" xmlns:xlink="http://www.w3.org/1999/xlink" style="isolation:isolate" viewBox="889.306 499.612 84.688 76.235" width="84.688pt" height="76.235pt"><defs><clipPath id="_clipPath_dwFC5ZT6qTM7AgCE4ColYyEARXQ9C4vK"><rect x="889.306" y="499.612" width="84.688" height="76.235"/></clipPath></defs><g clip-path="url(#_clipPath_dwFC5ZT6qTM7AgCE4ColYyEARXQ9C4vK)"><path d=" M 889.53 532.144 L 889.53 499.612 L 897.001 499.612 L 897.001 499.612 Q 901.419 499.612 903.547 501.6 L 903.547 501.6 L 903.547 501.6 Q 905.676 503.588 905.676 507.765 L 905.676 507.765 L 905.676 507.765 Q 905.676 513.99 901.017 514.633 L 901.017 514.633 L 901.017 514.633 Q 903.909 515.316 905.234 517.344 L 905.234 517.344 L 905.234 517.344 Q 906.559 519.372 906.559 522.866 L 906.559 522.866 L 906.559 522.866 Q 906.559 527.244 904.491 529.694 L 904.491 529.694 L 904.491 529.694 Q 902.423 532.144 898.206 532.144 L 898.206 532.144 L 889.53 532.144 L 889.53 532.144 Z  M 894.069 513.187 L 896.76 513.187 L 896.76 513.187 Q 899.571 513.187 900.655 511.962 L 900.655 511.962 L 900.655 511.962 Q 901.74 510.737 901.74 507.765 L 901.74 507.765 L 901.74 507.765 Q 901.74 505.596 901.077 504.572 L 901.077 504.572 L 901.077 504.572 Q 900.415 503.548 899.089 503.267 L 899.089 503.267 L 899.089 503.267 Q 897.764 502.985 895.153 502.985 L 895.153 502.985 L 894.069 502.985 L 894.069 513.187 L 894.069 513.187 Z  M 894.069 528.891 L 897.121 528.891 L 897.121 528.891 Q 899.129 528.891 900.234 528.268 L 900.234 528.268 L 900.234 528.268 Q 901.338 527.646 901.78 526.36 L 901.78 526.36 L 901.78 526.36 Q 902.222 525.075 902.222 522.866 L 902.222 522.866 L 902.222 522.866 Q 902.222 519.734 900.937 518.187 L 900.937 518.187 L 900.937 518.187 Q 899.651 516.641 896.76 516.641 L 896.76 516.641 L 894.069 516.641 L 894.069 528.891 L 894.069 528.891 Z  M 910.576 532.144 L 910.576 499.612 L 923.187 499.612 L 923.187 502.985 L 915.114 502.985 L 915.114 513.749 L 921.661 513.749 L 921.661 516.962 L 915.114 516.962 L 915.114 528.891 L 923.267 528.891 L 923.267 532.144 L 910.576 532.144 L 910.576 532.144 Z  M 926.922 532.144 L 926.922 499.612 L 931.461 499.612 L 931.461 528.891 L 939.774 528.891 L 939.774 532.144 L 926.922 532.144 L 926.922 532.144 Z  M 942.867 532.144 L 942.867 499.612 L 947.405 499.612 L 947.405 528.891 L 955.719 528.891 L 955.719 532.144 L 942.867 532.144 L 942.867 532.144 Z  M 962.667 532.144 L 962.667 520.657 L 955.639 499.612 L 959.856 499.612 L 964.836 515.316 L 969.736 499.612 L 973.994 499.612 L 967.005 520.657 L 967.005 532.144 L 962.667 532.144 L 962.667 532.144 Z " fill="rgb(139,139,139)"/><path d=" M 889.306 575.846 L 889.873 545.228 L 894.069 545.228 L 899.474 570.063 L 904.918 545.228 L 909.076 545.228 L 909.643 575.846 L 906.203 575.846 L 905.863 553.62 L 900.684 575.846 L 898.265 575.846 L 893.124 553.62 L 892.784 575.846 L 889.306 575.846 L 889.306 575.846 Z  M 912.667 575.846 L 919.168 545.228 L 923.289 545.228 L 929.828 575.846 L 925.783 575.846 L 924.385 568.135 L 918.148 568.135 L 916.674 575.846 L 912.667 575.846 L 912.667 575.846 Z  M 918.715 565.073 L 923.818 565.073 L 921.247 551.276 L 918.715 565.073 L 918.715 565.073 Z  M 932.852 575.846 L 933.419 545.228 L 937.615 545.228 L 943.021 570.063 L 948.464 545.228 L 952.622 545.228 L 953.189 575.846 L 949.749 575.846 L 949.409 553.62 L 944.23 575.846 L 941.811 575.846 L 936.67 553.62 L 936.33 575.846 L 932.852 575.846 L 932.852 575.846 Z  M 956.213 575.846 L 962.715 545.228 L 966.835 545.228 L 973.375 575.846 L 969.33 575.846 L 967.931 568.135 L 961.694 568.135 L 960.22 575.846 L 956.213 575.846 L 956.213 575.846 Z  M 962.261 565.073 L 967.364 565.073 L 964.794 551.276 L 962.261 565.073 L 962.261 565.073 Z " fill="rgb(212,39,87)"/></g></svg>